<svg width="24" height="24" viewBox="0 0 24 24" fill="none" xmlns="http://www.w3.org/2000/svg">
<path d="M14.75 17.2709C14.75 18.7897 13.5188 20.0209 12 20.0209C10.4812 20.0209 9.24999 18.7897 9.24999 17.2709M17.5 10.1209C17.5 8.85668 16.9205 6.26917 15.8891 5.37525C14.8576 4.48133 13.4587 3.97913 12 3.97913C10.5413 3.97913 9.14235 4.48133 8.1109 5.37525C7.07945 6.26917 6.49999 8.85668 6.49999 10.1209C6.49999 12.2125 5.98127 13.7422 5.33405 14.8368C4.59638 16.0844 4.22755 16.7081 4.24211 16.8571C4.25878 17.0276 4.28946 17.0814 4.42772 17.1825C4.54856 17.2709 5.15571 17.2709 6.36999 17.2709H17.63C18.8443 17.2709 19.4514 17.2709 19.5723 17.1825C19.7105 17.0814 19.7412 17.0276 19.7579 16.8571C19.7724 16.7081 19.4036 16.0844 18.6659 14.8368C18.0187 13.7422 17.5 12.2125 17.5 10.1209Z" stroke="#212529" stroke-width="1.375" stroke-linecap="round" stroke-linejoin="round"/>
</svg>
